<svg xmlns="http://www.w3.org/2000/svg" viewBox="0 0 64 64">
  <rect width="64" height="64" rx="18" fill="#fff7ef"/>
  <path d="M17 39c6-1 13-5 18-13 5-7 10-10 15-11" fill="none" stroke="#6f4353" stroke-width="3" stroke-linecap="round"/>
  <path d="M35 26c-2-7 2-12 8-12-1 6-3 10-8 12Z" fill="#dba7b5"/>
  <path d="M29 32c-7-1-11 3-11 9 6 0 10-3 11-9Z" fill="#d8c4ea"/>
  <circle cx="43" cy="15" r="4" fill="#f0c96f"/>
  <circle cx="49" cy="21" r="3.5" fill="#e8a9ba"/>
  <circle cx="38" cy="21" r="3.5" fill="#e8a9ba"/>
  <path d="M43 18.5c2 3 3 7 2 11" fill="none" stroke="#80565f" stroke-width="1.8" stroke-linecap="round"/>
  <text x="14" y="53" font-family="serif" font-size="16" font-weight="700" fill="#6f4353">M</text>
</svg>
